<?xml version="1.0" encoding="UTF-8"?>
<svg xmlns="http://www.w3.org/2000/svg" width="389" height="176" viewBox="0 0 389 176" fill="none">
  <path d="M347.897 135.362C347.897 135.506 345.385 137.848 344.943 139.18C344.779 139.674 344.899 140.029 345.537 140.082C347.425 140.239 349.667 137.394 350.552 135.952" stroke="black" stroke-width="0.983269" stroke-linecap="round"></path>
  <path d="M344.947 133.592C344.005 135.056 342.362 137.311 340.921 138.59C341.053 139.573 342.041 141.068 344.942 139.18C345.384 137.848 347.897 135.506 347.897 135.362" stroke="black" stroke-width="0.983269" stroke-linecap="round"></path>
  <path d="M342.391 132.216C340.588 134.149 337.317 138.292 338.655 139.394C338.892 139.589 339.194 139.608 339.54 139.493C339.951 139.357 340.424 139.032 340.922 138.59C342.362 137.311 344.006 135.056 344.948 133.592" stroke="black" stroke-width="0.983269" stroke-linecap="round"></path>
  <path d="M356.943 135.952C353.928 132.281 344.554 125.628 339.047 130.446C336.851 132.576 334.115 136.427 335.688 138C336.475 138.59 338.177 137.803 339.275 136.23" stroke="black" stroke-width="0.983269" stroke-linecap="round"></path>
  <path d="M322.204 93.8812C324.551 95.1902 329.786 97.0228 331.953 93.8812C334.661 89.9543 337.098 94.6118 336.015 97.6255C334.932 100.639 325.738 105.655 319.563 94.6527" stroke="black" stroke-width="0.983269" stroke-linecap="round"></path>
  <path d="M320.894 111.517C322.171 111.602 325.442 110.816 328.315 106.994" stroke="black" stroke-width="0.983269" stroke-linecap="round"></path>
  <path d="M327.58 101.783C327.367 102.973 327.414 104.992 328.315 106.994C329.077 108.685 330.45 110.364 332.792 111.517" stroke="black" stroke-width="0.983269" stroke-linecap="round"></path>
  <path d="M331.021 101.291C332.693 102.7 335.446 106.483 334.266 111.517" stroke="black" stroke-width="0.983269" stroke-linecap="round"></path>
  <path d="M326.302 100.996C324.401 101.946 320.776 104.968 321.484 109.452" stroke="black" stroke-width="0.983269" stroke-linecap="round"></path>
  <path d="M353.387 95.0312C373.937 95.0312 373.996 120.4 384.458 130.626" stroke="black" stroke-width="0.983269" stroke-linecap="round"></path>
  <path d="M324.98 44.4031C315.729 45.7391 312.388 57.0354 311.874 62.5165C309.232 71.2136 309.466 78.4354 311.328 83.8415C311.639 85.2118 310.898 87.6184 305.45 86.2824C300.002 84.9463 302.323 75.6198 304.165 71.1236C305.193 68.7598 305.45 64.4007 305.45 62.5165C303.497 37.132 319.026 34.3829 327.035 36.1814C324.568 37.8257 324.637 42.3477 324.98 44.4031Z" fill="black"></path>
  <path d="M357.348 50.3206C353.357 29.7489 329.415 30.6486 322.207 36.9488C314.098 47.2346 334.822 72.6925 340.485 70.2495C344.501 67.1638 347.515 68.8352 348.337 70.2495C352.044 76.6268 346.793 80.1926 343.703 81.1784C344.527 85.6013 333.921 90.4357 335.465 93.7786C343.703 104.193 368.932 87.2213 362.883 82.0784C358.043 77.964 358.305 72.6927 358.377 70.2495C358.764 57.2637 358.377 56.2351 357.348 50.3206Z" fill="black"></path>
  <path d="M321.726 78.2172C317.051 77.2059 319.518 75.1831 320.557 71.1377" stroke="black" stroke-width="0.983269" stroke-linecap="round"></path>
  <ellipse rx="1.17625" ry="1.76438" transform="matrix(-0.981591 0.190995 0.190995 0.981591 314.842 67.0883)" fill="black"></ellipse>
  <ellipse rx="1.16065" ry="1.74097" transform="matrix(-0.988875 0.148746 0.148746 0.988875 327.963 70.4025)" fill="black"></ellipse>
  <path d="M345.521 72.3176C345.966 73.1042 346.589 74.9921 345.521 76.2507" stroke="black" stroke-width="0.983269" stroke-linecap="round"></path>
  <path d="M336.672 92.3556C326.006 92.3556 320.094 99.385 310.713 83.9202" stroke="black" stroke-width="0.983269" stroke-linecap="round"></path>
  <path d="M322.906 85.3906C320.412 86.1601 318.416 85.3906 317.793 83.7235" stroke="black" stroke-width="0.983269" stroke-linecap="round"></path>
  <path d="M323.201 70.5477C323.201 73.7001 325.456 76.1524 328.117 76.1524C330.779 76.1524 333.034 73.7001 333.034 70.5477C333.034 67.3954 330.779 64.9431 328.117 64.9431C325.456 64.9431 323.201 67.3954 323.201 70.5477Z" stroke="black" stroke-width="0.983269"></path>
  <path d="M310.025 67.2046C310.025 70.357 312.28 72.8093 314.941 72.8093C317.603 72.8093 319.857 70.357 319.857 67.2046C319.857 64.0523 317.603 61.6 314.941 61.6C312.28 61.6 310.025 64.0523 310.025 67.2046Z" stroke="black" stroke-width="0.983269"></path>
  <path d="M319.956 67.8886C320.756 67.7192 322.585 67.6599 323.496 68.7779" stroke="black" stroke-width="0.983269" stroke-linecap="round"></path>
  <path d="M332.852 68.6287L336.834 68.7571" stroke="black" stroke-width="0.983269" stroke-linecap="round"></path>
  <path d="M188.493 97.0793V113.795" stroke="black" stroke-width="0.983269" stroke-linecap="round"></path>
  <path d="M201.079 99.0458V114.975" stroke="black" stroke-width="0.983269" stroke-linecap="round"></path>
  <path d="M150.965 96.5357L153.483 142.288C153.541 143.348 154.418 144.178 155.48 144.178H229.064C230.131 144.178 231.01 143.34 231.061 142.274L233.296 95.7357C233.407 93.4375 231.56 91.5201 229.26 91.544L154.917 92.3162C152.638 92.3398 150.84 94.2601 150.965 96.5357Z" fill="white" stroke="black"></path>
  <rect x="153.095" y="144.866" width="77.8749" height="3.73642" rx="1.86821" fill="black"></rect>
  <path d="M201 71.0013C207.869 70.9099 222.986 75.7498 229 91" stroke="black" stroke-width="0.983269" stroke-linecap="round"></path>
  <path d="M186.231 70.4327C170.597 73.4809 163.399 79.1192 157.5 92" stroke="black" stroke-width="0.983269" stroke-linecap="round"></path>
  <path d="M242.376 87.755L247.587 83.4286" stroke="black" stroke-width="0.983269" stroke-linecap="round"></path>
  <path d="M238.541 85.9851L242.376 79.5938" stroke="black" stroke-width="0.983269" stroke-linecap="round"></path>
  <path d="M243.162 90.7048C244.178 91.0981 246.486 91.4717 247.587 89.8198" stroke="black" stroke-width="0.983269" stroke-linecap="round"></path>
  <path d="M148.572 83.8052L145.032 74.6608" stroke="black" stroke-width="0.983269" stroke-linecap="round"></path>
  <path d="M142.574 84.7884L136.674 78.6922" stroke="black" stroke-width="0.983269" stroke-linecap="round"></path>
  <path d="M141.099 88.2299L136.674 86.5583" stroke="black" stroke-width="0.983269" stroke-linecap="round"></path>
  <path d="M138.346 139.512C139.339 139.479 140.448 139.432 141.682 139.371C149.256 138.992 149.111 133.72 148.007 130.842C147.925 130.627 147.792 130.431 147.631 130.267C140.492 122.967 134.206 125.273 131.694 127.541C131.532 127.687 131.404 127.873 131.309 128.07C127.303 136.42 128.742 138.985 130.258 139.329C130.525 139.389 130.802 139.418 131.072 139.454C131.92 139.567 134.06 139.658 138.346 139.512ZM138.346 139.512C137.887 137.724 137.54 133.303 139.821 129.92" stroke="black" stroke-width="0.983269" stroke-linecap="round"></path>
  <path d="M358.795 135.427H387.703" stroke="black" stroke-width="0.983269" stroke-linecap="round"></path>
  <path d="M331.559 135.427H303.634" stroke="black" stroke-width="0.983269" stroke-linecap="round"></path>
  <path d="M258.207 135.427H280.723" stroke="black" stroke-width="0.983269" stroke-linecap="round"></path>
  <path d="M123.695 135.427H102.457" stroke="black" stroke-width="0.983269" stroke-linecap="round"></path>
  <path d="M67.2558 158.059L57.0298 172.906" stroke="black" stroke-width="0.983269" stroke-linecap="round"></path>
  <path d="M233.133 103.094C236.771 108.797 240.901 115.581 233.133 128.347" stroke="black" stroke-width="0.983269" stroke-linecap="round"></path>
  <path d="M244.915 140.515C243.102 140.173 239.562 140.785 241.681 145.199C243.298 148.566 245.797 150.323 246.532 151.054" stroke="black" stroke-width="0.983269" stroke-linecap="round"></path>
  <path d="M249.27 155.344C245.261 151.946 245.252 143.253 245.807 138.757C245.837 138.507 246.095 138.357 246.334 138.436C250.281 139.741 255.042 139.037 257.347 138.405C257.584 138.34 257.829 138.502 257.856 138.746C259.059 149.389 256.067 154.136 254.394 155.348C254.378 155.36 254.362 155.369 254.344 155.378C253.413 155.832 251.158 156.445 249.323 155.381C249.304 155.37 249.287 155.358 249.27 155.344Z" stroke="black" stroke-width="0.983269" stroke-linecap="round"></path>
  <ellipse cx="251.841" cy="138.272" rx="6.29292" ry="1.17992" fill="black"></ellipse>
  <path d="M253.252 134.142C254.303 133.21 255.775 130.299 253.252 126.113C250.729 121.927 253.489 118.053 255.185 116.64" stroke="black" stroke-width="0.983269" stroke-linecap="round"></path>
  <path d="M250.269 130.012C248.805 128.039 246.51 123.231 249.043 119.786" stroke="black" stroke-width="0.983269" stroke-linecap="round"></path>
  <path d="M260.866 155.427C263.612 153.919 258.697 154.209 256.015 154.249L254.595 155.662C257.553 156.251 259.801 155.898 260.866 155.427Z" fill="black"></path>
  <path d="M201.373 71.0226C202.258 68.4661 201.452 66.7458 200.665 66.418C195.946 70.7444 188.787 69.1384 186.133 66.5164C185.189 67.3816 185.739 69.941 186.133 70.7277C191.246 76.3913 198.522 73.2186 201.373 71.0226Z" fill="black"></path>
  <path d="M180.43 86.755L182.009 84.3311C183.548 81.9689 186.544 81.0257 189.158 82.0801L192.922 83.5976C195.27 84.5443 197.96 83.8875 199.607 81.9654L203.93 76.9223" stroke="black" stroke-width="0.983269" stroke-linecap="round"></path>
  <path d="M149.653 106.715C148.178 110.19 146.428 118.613 151.226 124.513" stroke="black" stroke-width="0.983269" stroke-linecap="round"></path>
  <path fill-rule="evenodd" clip-rule="evenodd" d="M169.153 48.0292L169.061 48.1493C169.047 48.169 169.032 48.1884 169.018 48.2076C169.171 48.219 169.323 48.2456 169.47 48.2858L169.472 48.2698C169.454 48.2603 169.435 48.2513 169.418 48.2395C169.322 48.1739 169.235 48.1035 169.153 48.0292Z" fill="black"></path>
  <path fill-rule="evenodd" clip-rule="evenodd" d="M173.186 42.6391C174.096 42.8334 174.852 43.0933 175.626 43.6222L175.692 43.6682C176.374 44.1471 177.49 45.0096 177.239 45.962C177.167 46.233 176.923 46.4922 176.61 46.422C175.755 46.2302 175.395 45.2846 174.893 44.6521C174.387 44.0147 173.748 43.3411 173.091 42.8554C172.998 42.7869 173.063 42.6256 173.174 42.6371L173.186 42.6391Z" fill="black"></path>
  <path fill-rule="evenodd" clip-rule="evenodd" d="M170.771 28.656C170.543 28.6286 170.585 28.8604 170.73 28.6946C170.742 28.6811 170.756 28.6679 170.771 28.656Z" fill="black"></path>
  <path fill-rule="evenodd" clip-rule="evenodd" d="M183.222 2.98399C183.056 2.40901 182.629 1.96964 182 2.00164C181.418 2.03183 180.882 2.47856 180.835 3.10159L180.826 3.19883C180.808 3.39278 180.781 3.58358 180.748 3.77138C180.032 3.69143 179.3 3.70433 178.594 3.78829C178.294 3.82419 177.996 3.87908 177.7 3.94548C177.344 3.93734 176.983 3.98477 176.624 4.0967C176.307 4.19628 176.01 4.34361 175.739 4.52882C175.58 4.58365 175.421 4.63918 175.262 4.6947C174.986 4.79092 174.71 4.88711 174.435 4.97954L173.437 4.93014L173.393 4.92845C173.22 4.92426 173.063 4.95047 172.921 5.00127C172.646 4.72431 172.349 4.46893 172.035 4.24088C171.461 3.8246 170.788 4.01362 170.343 4.51433C170.061 4.83224 169.842 5.19192 169.682 5.57509C169.228 5.67228 168.882 6.07814 168.789 6.5305C167.588 6.55484 166.417 7.06896 165.691 8.17608C165.67 8.20824 165.652 8.2406 165.633 8.27296C165.206 8.59074 164.828 8.98091 164.52 9.42485C163.883 9.54072 163.275 9.76123 162.723 10.1763C161.846 10.8354 161.318 12.0779 161.553 13.1758C161.583 13.3117 161.622 13.4391 161.669 13.5601C160.986 14.211 160.419 14.9918 159.993 15.8565C159.843 16.1568 159.875 16.5086 160.019 16.8128C159.479 17.8299 159.42 19.1044 160.134 20.0383C160.038 20.1966 159.947 20.3586 159.863 20.5233C159.856 20.5323 159.85 20.5414 159.844 20.5505C159.818 20.588 159.791 20.6257 159.767 20.665C158.984 21.8941 158.795 23.2768 159.225 24.6654C159.338 25.0265 159.829 25.3918 160.203 25.379C160.896 25.3549 161.58 25.277 162.249 25.1405C161.79 25.5069 161.38 25.9405 161.035 26.4347C160.521 27.1711 160.952 28.3315 161.886 28.3869C163.187 28.4639 164.483 28.306 165.713 27.9038C165.88 28.0692 166.077 28.193 166.294 28.2761C166.313 29.2618 167.386 29.9197 168.207 29.257L168.208 29.2565C168.532 28.996 168.856 28.7354 169.18 28.4737C169.381 28.8408 169.762 29.1358 170.131 29.1245C170.337 29.1185 170.539 29.1252 170.736 29.1441C170.582 29.2777 170.437 29.4262 170.302 29.5944C170.011 29.9569 170.378 30.4689 170.794 30.4065C171.359 30.3217 171.905 30.1684 172.429 29.9485C172.462 29.9837 172.501 30.0116 172.545 30.0327C172.434 30.2154 172.35 30.423 172.297 30.6515L172.294 30.6698C172.212 30.6431 172.125 30.6218 172.032 30.6115C171.258 30.5236 170.532 31.1658 170.426 31.9343C170.401 32.1155 170.412 32.2899 170.45 32.4536C170.098 33.4677 169.941 34.5823 170.189 35.5462C170.132 35.6525 170.122 35.7859 170.148 35.9046C169.91 36.1196 169.736 36.422 169.669 36.7707C169.555 37.3633 169.792 37.875 170.141 38.3157C170.155 38.3724 170.171 38.4287 170.189 38.4847C170.181 38.515 170.175 38.5456 170.171 38.5763C169.987 38.7589 169.525 38.8594 169.068 38.9588C168.411 39.1018 167.765 39.2424 167.976 39.6217C167.992 39.6495 168.008 39.6753 168.025 39.7006C168.019 39.8857 168.041 40.0726 168.092 40.2565C168.077 40.2867 168.062 40.3168 168.047 40.3467C168.016 40.4076 167.985 40.4679 167.965 40.5277C167.874 40.7956 167.839 41.0702 167.847 41.3518C167.85 41.4535 167.836 41.757 167.818 42.1457C167.772 43.1152 167.701 44.6147 167.813 44.8358L167.817 44.9289C167.756 45.0749 167.729 45.2454 167.75 45.4384C167.722 45.4511 167.692 45.4636 167.663 45.4753C166.854 45.0403 165.772 45.0892 165.091 45.7464C164.422 46.3893 164.7 47.5413 165.651 47.667C166.056 47.7195 166.486 47.6988 166.903 47.6083L167.019 47.7125C167.327 47.9814 167.706 48.1579 168.097 48.1914C168.095 48.3557 168.092 48.52 168.093 48.6846C168.08 49.2644 170.641 54.4512 170.641 54.4512C170.641 54.4512 170.348 55.5804 169.669 56.1508C169.053 56.6704 169.679 57.7945 170.423 57.3906L170.504 57.3473C170.835 57.1764 171.184 57.0442 171.533 56.9122C172.049 56.7168 172.563 56.5219 173.015 56.2021C173.304 56.4514 173.496 56.6098 173.638 56.7266C174.006 57.0308 174.033 57.0527 174.546 57.6619C174.687 57.9613 174.85 58.253 175.01 58.5399C175.087 58.677 175.163 58.8129 175.236 58.9481C175.325 59.1128 175.501 59.251 175.69 59.2983C175.97 59.7915 176.213 60.3081 176.414 60.8453C176.689 61.5861 177.936 61.2136 177.735 60.4295L177.668 60.1632C177.72 60.1146 177.769 60.0603 177.813 60.0015C177.899 60.2115 177.993 60.4172 178.095 60.6133C178.814 61.9845 179.857 63.5764 181.495 63.7666C182.019 63.827 182.444 63.2383 182.212 62.7487C181.916 62.1285 181.516 61.7067 181.054 61.2484L180.853 61.049C180.373 60.5738 179.925 60.0676 179.523 59.5225C179.128 58.9853 178.783 58.4367 178.448 57.8588C178.426 57.822 178.394 57.7534 178.354 57.667C178.271 57.4872 178.151 57.2304 178.017 57.0233C178.316 56.8711 178.492 56.6503 178.697 56.3172C178.932 55.9353 178.583 55.5357 178.182 55.6724C178.089 55.7041 177.988 55.7166 177.885 55.7292C177.791 55.7408 177.697 55.7524 177.607 55.779C177.585 55.7858 177.563 55.7926 177.541 55.7994C177.435 55.8321 177.33 55.8646 177.22 55.8861C176.908 55.9457 176.582 55.9302 176.275 55.8482C175.604 55.668 173.398 54.5799 173.015 54.0077C170.423 50.459 170.318 47.7102 170.736 46.2532C170.779 46.1057 170.823 45.9374 170.871 45.7547C171.265 44.2575 171.914 41.788 173.902 41.788C176.132 41.788 178.622 44.7439 178.749 46.0737C178.759 46.1764 178.902 46.1587 178.919 46.0681C178.984 45.6939 178.975 45.3286 178.905 44.9823C179.325 45.3268 179.814 45.581 180.355 45.7179C180.374 45.7229 180.392 45.7258 180.41 45.7286L180.41 45.7287C180.719 45.8918 181.057 45.9915 181.378 46.0106C181.516 46.0194 181.651 45.921 181.663 45.7738C181.887 43.0603 181.621 38.5334 181.106 35.859L181.38 36.1549C181.45 36.2313 181.52 36.3105 181.591 36.3907C181.961 36.8091 182.354 37.254 182.859 37.4668C184.005 37.9516 184.823 36.9503 184.84 35.8542C184.849 35.3391 184.752 34.8333 184.655 34.3302C184.644 34.2731 184.633 34.216 184.623 34.159L184.591 33.9911L184.591 33.9871C184.447 33.2007 184.304 32.4144 184.161 31.6292C184.163 31.6067 184.166 31.5841 184.167 31.5624C184.937 32.0951 185.936 32.4767 186.714 31.8573C187.195 31.4751 187.365 30.859 187.481 30.2736L187.505 30.1487C187.565 29.8341 187.613 29.5153 187.654 29.1956C188.151 29.8646 188.73 30.463 189.451 30.8714C190.699 31.5781 192.174 31.4664 193.305 30.5654C193.314 30.5587 193.323 30.5513 193.331 30.544C193.336 30.5392 193.341 30.5345 193.347 30.5301C193.648 30.6406 193.957 30.7311 194.269 30.8147C195.448 31.1316 196.711 31.4529 197.929 31.5578C199.032 31.6521 199.704 31.2889 200.689 30.7207C201.312 30.3626 201.904 29.7991 202.241 29.1246L202.262 29.135L202.25 29.1592C202.137 29.4021 202.146 29.678 202.345 29.9642C202.518 30.2153 202.824 30.3439 203.139 30.3707C203.191 30.4839 203.26 30.5947 203.368 30.7125C203.595 30.9628 203.844 31.1718 204.134 31.3392C204.755 31.7012 205.404 31.8033 206.112 31.7466C206.205 31.7394 206.294 31.7059 206.375 31.655C206.525 32.0533 206.478 32.3623 206.428 32.6873C206.387 32.9512 206.345 33.2257 206.406 33.5671C206.441 33.7615 206.463 33.9592 206.485 34.1568C206.494 34.2438 206.504 34.3309 206.515 34.4177C206.5 34.9468 206.608 35.7983 206.714 36.6391C206.811 37.4089 206.908 38.1697 206.908 38.6659C206.801 40.4954 206.848 41.7745 206.894 43.0545C206.942 44.3713 206.989 45.6892 206.871 47.6083C206.07 60.6038 199.222 66.5777 193.25 66.7655C191.126 66.8323 189 65.7869 187.503 65.0508C187.215 64.9092 186.95 64.779 186.714 64.6704C185.861 64.2798 185.26 65.2823 186.479 65.9277C186.546 65.963 186.616 66.0005 186.69 66.0399C187.969 66.7225 190.33 67.9821 193.25 68.1036C199.137 68.3484 204.798 62.021 206.496 56.2256C207.476 52.8799 208.117 49.7664 208.285 46.3039L208.3 46.0075C208.402 44.0492 208.317 41.9501 208.234 39.91C208.203 39.1258 208.171 38.3503 208.151 37.595C208.419 37.6139 208.592 37.1694 208.671 36.8671C208.733 36.6277 208.807 36.4714 208.879 36.318C208.951 36.1646 209.022 36.0141 209.078 35.7864C209.13 35.5791 209.028 35.308 208.927 35.0415C208.852 34.8462 208.779 34.6533 208.769 34.4898C208.752 34.2162 208.711 33.9434 208.671 33.6726C208.605 33.2424 208.61 32.8659 208.616 32.5041C208.624 31.9651 208.632 31.4586 208.401 30.8552C208.114 30.1048 207.779 29.3714 207.397 28.6654C207.228 28.0913 206.916 27.5288 206.617 26.9901C206.593 26.9462 206.568 26.9025 206.544 26.859L206.462 26.7088L206.526 26.485L206.536 26.4504C206.678 25.9094 206.552 25.3987 206.113 25.0422C205.706 24.7115 205.3 24.38 204.893 24.0485C204.158 23.4494 203.423 22.8503 202.685 22.2555C202.192 21.8589 202.078 21.8305 201.475 21.7506C201 20.9438 200.173 20.3845 199.191 20.1178C198.88 20.0331 198.566 19.9682 198.253 19.9034C197.782 19.8061 197.313 19.709 196.855 19.5454C196.589 19.4502 196.326 19.3456 196.064 19.241C195.612 19.0607 195.16 18.8804 194.69 18.7487C193.539 18.4252 192.233 18.2813 191.087 18.7159C190.194 18.6273 189.295 18.6004 188.394 18.6458C188.139 18.2173 187.832 17.823 187.484 17.4691C187.535 17.4089 187.588 17.35 187.64 17.2911L187.64 17.2909C187.896 17.3843 188.19 17.3788 188.489 17.2276C189.505 16.7134 190.204 15.8016 190.258 14.6294C190.282 14.1275 190.058 13.7706 189.738 13.5876C189.894 13.2123 190.084 12.8507 190.307 12.5029C190.496 12.271 190.675 12.0287 190.839 11.7703C191.69 10.431 189.879 9.0901 188.887 10.3207C188.718 10.5298 188.559 10.7471 188.409 10.9695C188.2 11.2191 187.97 11.45 187.723 11.6584L187.905 10.5727L187.909 10.5419C187.962 10.1401 187.749 9.72531 187.437 9.47403L187.689 8.70793C187.731 8.58278 187.774 8.45619 187.818 8.32842C188.181 7.26918 188.573 6.12915 188.05 5.0649C187.229 3.39493 185.039 2.97126 183.412 3.58946C183.344 3.40103 183.284 3.21013 183.231 3.01492L183.222 2.98399ZM178.974 17.5144C180.785 16.4792 183.148 15.5428 185.31 15.8171C185.779 16.0843 186.2 16.4132 186.555 16.802C184.817 17.0819 183.133 17.6649 181.578 18.5002C179.528 19.6024 177.743 21.0315 176.075 22.6438C175.47 23.2277 174.895 23.8402 174.354 24.4804L174.347 24.4991C174.168 24.9006 173.911 25.2657 173.629 25.6057C173.579 25.5352 173.512 25.4773 173.425 25.4421C173.156 25.3327 172.923 25.1536 172.758 24.9278C172.833 24.7551 172.924 24.5908 173.035 24.4422L173.093 24.2978C173.159 24.1292 173.222 23.9598 173.285 23.7907C173.397 23.4871 173.51 23.184 173.642 22.8862C173.955 22.1841 174.304 21.493 174.69 20.8227C175.983 19.5566 177.399 18.415 178.974 17.5144Z" fill="black"></path>
  <path d="M173.201 46.3187C172.183 48.8518 173.334 54.6157 179.99 54.6157" stroke="black" stroke-linecap="round"></path>
  <path d="M176.411 48.2796C176.277 48.7777 176.384 49.9577 177.877 50.6933" stroke="black" stroke-linecap="round"></path>
  <path d="M206.993 53.2582C209.216 52.3217 210.333 49.0053 209.729 43.4526" stroke="black" stroke-linecap="round"></path>
  <path d="M195.377 59.3127C197.513 59.933 197.377 58.226 198.997 56.728" stroke="black" stroke-linecap="round"></path>
  <path d="M201.454 49.5457C202.151 49.6127 202.802 48.7447 202.911 47.6072C203.02 46.4698 202.546 45.4934 201.852 45.4268C201.155 45.3598 200.503 46.2278 200.395 47.3653C200.286 48.5027 200.76 49.479 201.454 49.5457Z" fill="black"></path>
  <path d="M188.778 49.5533C189.477 49.6384 190.154 48.8003 190.29 47.6812C190.426 46.5622 189.969 45.5864 189.27 45.5014C188.571 45.4163 187.894 46.2544 187.758 47.3735C187.621 48.4922 188.078 49.4683 188.778 49.5533Z" fill="black"></path>
  <path d="M185.422 43.4521C185.711 42.56 186.962 40.9093 189.645 41.4446" stroke="black" stroke-linecap="round"></path>
  <path d="M198.395 41.642C199.034 41.1868 200.775 40.5492 202.619 41.642" stroke="black" stroke-linecap="round"></path>
  <path d="M196.137 45.2628C196.345 47.0888 196.49 50.7914 195.377 50.9953" stroke="black" stroke-linecap="round"></path>
  <path d="M284.853 135.542C284.361 131.314 282.244 130.184 291.537 112.356C295.565 104.628 303.49 102.787 308.777 104.613C312.932 106.047 315.576 110.757 304.445 132.2" stroke="black" stroke-width="0.983269" stroke-linecap="round"></path>
  <path d="M311.893 103.979C313.434 102.275 316.475 97.8826 316.318 93.9496" stroke="black" stroke-width="0.983269" stroke-linecap="round"></path>
  <path d="M302.355 101.816C302.355 101.521 306.19 98.5709 305.01 93.9496C304.64 92.4998 303.103 86.8897 303.732 85.0018" stroke="black" stroke-width="0.983269" stroke-linecap="round"></path>
  <path d="M52.9716 80.3455C53.9506 69.2981 49.1721 63.4872 46.6605 61.9629C54.7853 66.5446 62.792 63.5667 65.7799 61.5052L66.6955 66.4142C72.262 66.9761 73.5881 59.4257 73.5553 55.5803C73.5046 49.6473 66.9452 42.3216 53.8966 45.2592C40.848 48.1969 33.6869 58.9971 31.7371 64.0301C22.3947 61.4599 12.3587 68.4542 8.50854 72.2727C4.52737 76.2364 -3.85431 88.219 2.03128 101.598C9.97189 119.649 31.0941 115.166 34.5416 113.391C46.4542 107.256 51.7481 94.1547 52.9716 80.3455Z" fill="black"></path>
  <path d="M70.8251 78.3099C70.5473 80.1851 69.8539 81.788 68.9873 82.8659C68.1109 83.9564 67.1409 84.4224 66.2842 84.2954C65.4279 84.1685 64.6344 83.4411 64.1117 82.143C63.5948 80.8601 63.3954 79.1248 63.6731 77.2496C63.9506 75.3745 64.6443 73.7716 65.5109 72.6936C66.3873 71.6029 67.3573 71.1369 68.214 71.2639C69.0703 71.391 69.8638 72.1182 70.3865 73.4163C70.9034 74.6992 71.1028 76.4347 70.8251 78.3099Z" stroke="black" stroke-width="0.983269"></path>
  <path d="M67.3065 79.9229C67.9094 80.0121 68.5286 79.2042 68.6894 78.1183C68.8502 77.0323 68.4918 76.0794 67.8889 75.9899C67.286 75.9005 66.6668 76.7086 66.506 77.7946C66.3452 78.8806 66.7036 79.8335 67.3065 79.9229Z" fill="black"></path>
  <path d="M53.0043 79.4206L63.209 78.4946" stroke="black" stroke-width="0.983269" stroke-linecap="round"></path>
  <path d="M67.8183 66.6072C68.6997 68.3825 71.3002 72.2626 74.0156 74.4341C76.7927 76.6552 77.0273 79.4863 75.2542 81.5262L72.4902 84.7353C74.0156 96.4055 71.7682 105.047 57.4733 109.07" stroke="black" stroke-width="0.983269" stroke-linecap="round"></path>
  <path d="M57.3042 90.065C57.6419 90.115 57.9564 89.8817 58.0064 89.5436C58.0564 89.2058 57.8232 88.891 57.4853 88.841C57.1476 88.791 56.8331 89.0243 56.7831 89.3624C56.7331 89.7003 56.9663 90.015 57.3042 90.065Z" fill="black"></path>
  <path d="M55.0889 95.7402C55.4942 95.8004 55.8635 95.5751 55.9135 95.237C55.9635 94.8989 55.6753 94.5764 55.27 94.5162C54.8647 94.4561 54.4954 94.6814 54.4455 95.0195C54.3955 95.3573 54.6836 95.6801 55.0889 95.7402Z" fill="black"></path>
  <path d="M60.4798 94.7887C60.8851 94.8488 61.2541 94.6235 61.3044 94.2854C61.3543 93.9476 61.0662 93.6248 60.6609 93.5647C60.2556 93.5045 59.8863 93.7298 59.8363 94.0679C59.7863 94.4057 60.0742 94.7285 60.4798 94.7887Z" fill="black"></path>
  <path d="M71.6799 120.413L76.2563 115.549C77.0844 114.629 79.2376 113.63 81.225 116.995C83.2126 120.36 82.489 123.919 81.8789 125.277" stroke="black" stroke-width="0.983269" stroke-linecap="round"></path>
  <path d="M95.8477 112.301C96.3014 111.688 96.5427 111.149 96.6281 110.775C97.0637 110.012 97.324 108.251 94.7987 107.596C90.8785 106.579 91.532 108.995 92.3159 109.122C94.9293 109.427 96.0207 111.623 95.8477 112.301Z" stroke="black" stroke-width="0.983269" stroke-linecap="round"></path>
  <path d="M82.5266 122.682C82.9187 121.334 84.9053 118.206 89.7151 116.481C92.9545 115.318 94.7947 113.642 95.7308 112.301" stroke="black" stroke-width="0.983269" stroke-linecap="round"></path>
  <path d="M89.5998 112.721C88.4113 112.087 85.4273 111.353 82.9977 113.481" stroke="black" stroke-width="0.983269" stroke-linecap="round"></path>
  <path d="M93.3729 112.773C92.2109 110.713 89.2165 107.184 86.535 109.548" stroke="black" stroke-width="0.983269" stroke-linecap="round"></path>
  <path d="M79.9324 113.481C81.0035 110.332 83.28 106.225 90.7787 105.695" stroke="black" stroke-width="0.983269" stroke-linecap="round"></path>
  <path d="M99.8241 125.458C100.367 124.7 100.639 124.01 100.392 123.533C99.6727 122.148 97.9035 123.57 97.1089 124.454C95.1314 126.582 91.3253 130.279 92.3512 125.977C93.3769 121.673 91.1951 121.938 86.0862 127.191L81.0078 130.281" stroke="black" stroke-width="0.983269" stroke-linecap="round"></path>
  <path d="M99.409 132.205C99.8464 133.551 99.1447 136.665 92.7138 137.42C90.2807 137.706 89.915 137.665 87.6314 137.473H83.7196" stroke="black" stroke-width="0.983269" stroke-linecap="round"></path>
  <path d="M95.509 129.513C96.7726 128.581 98.7879 126.89 99.8223 125.445C100.946 125.432 102.033 126.065 100.3 128.279C99.5493 129.238 98.2699 130.492 96.2355 132.119" stroke="black" stroke-width="0.983269" stroke-linecap="round"></path>
  <path d="M96.2372 132.133C98.2716 130.506 99.551 129.251 100.301 128.293C101.373 128.595 102.337 129.764 99.4088 132.205C98.7684 132.739 97.9417 133.333 96.8894 133.993" stroke="black" stroke-width="0.983269" stroke-linecap="round"></path>
  <path d="M34.5907 115.751C17.2689 128.394 19.3416 144.16 19.3416 163.645" stroke="black" stroke-width="0.983269" stroke-linecap="round"></path>
  <path d="M35.0626 115.966L43.3782 123.247C43.6482 123.483 44.0728 123.343 44.1495 122.992L46.3173 113.072C46.3977 112.704 46.8552 112.574 47.1169 112.845L52.7468 118.668" stroke="black" stroke-width="0.983269" stroke-linecap="round"></path>
  <path d="M52.7466 110.089C53.2078 110.953 53.8689 112.359 54.4886 113.992C55.3388 116.234 56.1108 118.906 56.1799 121.199" stroke="black" stroke-width="0.983269" stroke-linecap="round"></path>
  <path d="M54.4888 113.992L70.0296 122.328" stroke="black" stroke-width="0.983269" stroke-linecap="round"></path>
  <path d="M42.3719 130.263C45.2118 134.112 61.2056 144.772 72.715 133.076L75.8541 129.671" stroke="black" stroke-width="0.983269" stroke-linecap="round"></path>
  <path d="M50.153 167.892C53.848 166.936 71.374 157.332 76.4784 148.409" stroke="black" stroke-width="0.983269" stroke-linecap="round"></path>
  <path d="M75.11 136.809C76.3757 141.356 76.732 145.195 76.4783 148.409C79.2943 146.476 81.9844 144.989 81.9844 138.891C81.9844 134.578 78.8461 130.861 76.0065 129.671" stroke="black" stroke-width="0.983269" stroke-linecap="round"></path>
  <path d="M51.5677 126.604C52.2188 126.604 52.7467 125.97 52.7467 125.188C52.7467 124.406 52.2188 123.773 51.5677 123.773C50.9167 123.773 50.3888 124.406 50.3888 125.188C50.3888 125.97 50.9167 126.604 51.5677 126.604Z" fill="black"></path>
  <path d="M53.2183 133.446C53.8693 133.446 54.3972 132.812 54.3972 132.03C54.3972 131.248 53.8693 130.615 53.2183 130.615C52.5672 130.615 52.0393 131.248 52.0393 132.03C52.0393 132.812 52.5672 133.446 53.2183 133.446Z" fill="black"></path>
  <path d="M65.7433 94.2816C65.5915 95.2017 65.9862 97.1033 68.7808 97.3487" stroke="black" stroke-width="0.983269" stroke-linecap="round"></path>
  <path d="M89.9915 101.749C88.4824 103.448 91.7608 105.761 92.688 107.11C94.0084 106.732 97.5377 107.412 96.8303 109.653C98.1271 108.199 102.724 104.581 103.55 103.519C105.292 101.278 102.929 99.5088 101.309 97.7391C100.229 96.5594 98.7159 94.2004 95.8862 96.5594C93.7641 98.3289 91.5005 100.05 89.9915 101.749Z" stroke="black" stroke-width="0.983269"></path>
  <path d="M94.6718 126.103L92.4615 122.285C92.4063 122.19 92.4242 122.069 92.5051 121.994C93.9783 120.632 97.119 117.793 99.2098 116.127C99.315 116.043 99.4675 116.064 99.5439 116.175C100.721 117.886 103.089 122.02 104.22 126.516C104.234 126.572 104.227 126.63 104.2 126.681C103.506 127.947 102.922 128.698 101.508 129.524" stroke="black" stroke-width="0.983269" stroke-linecap="round"></path>
  <path d="M324.036 173.594C322.227 170.448 328.002 169.989 331.116 170.153V172.414L341.243 173.594C336.261 174.905 325.845 176.741 324.036 173.594Z" fill="black"></path>
  <path d="M346.257 169.366L342.423 173.299" stroke="black" stroke-width="0.983269" stroke-linecap="round"></path>
  <path d="M341.538 161.303L331.607 160.615" stroke="black" stroke-width="0.983269" stroke-linecap="round"></path>
  <path d="M335.638 158.059L346.258 158.55" stroke="black" stroke-width="0.983269" stroke-linecap="round"></path>
  <path d="M331.41 160.615L330.918 172.021" stroke="black" stroke-width="0.983269" stroke-linecap="round"></path>
  <path d="M346.258 158.747V169.17" stroke="black" stroke-width="0.983269" stroke-linecap="round"></path>
  <path d="M342.423 164.942V173.299" stroke="black" stroke-width="0.983269" stroke-linecap="round"></path>
  <path d="M331.41 160.615L335.638 158.059" stroke="black" stroke-width="0.983269" stroke-linecap="round"></path>
  <path d="M342.423 173.299L330.82 172.119" stroke="black" stroke-width="0.983269" stroke-linecap="round"></path>
  <path d="M285.739 163.27C285.837 160.517 296.85 161.402 297.538 161.5V163.27L300.881 165.63C295.801 165.761 285.66 165.473 285.739 163.27Z" fill="black"></path>
  <path d="M313.073 162.975V152.946" stroke="black" stroke-width="0.983269" stroke-linecap="round"></path>
  <path d="M304.519 165.532V154.519" stroke="black" stroke-width="0.983269" stroke-linecap="round"></path>
  <path d="M297.439 162.975V151.962" stroke="black" stroke-width="0.983269" stroke-linecap="round"></path>
  <path d="M297.439 151.962L305.207 149.996" stroke="black" stroke-width="0.983269" stroke-linecap="round"></path>
  <path d="M313.073 152.847L304.519 154.421" stroke="black" stroke-width="0.983269" stroke-linecap="round"></path>
  <path d="M304.519 165.63L313.073 163.073" stroke="black" stroke-width="0.983269" stroke-linecap="round"></path>
  <path d="M313.073 152.847L305.207 149.996" stroke="black" stroke-width="0.983269" stroke-linecap="round"></path>
  <path d="M297.439 152.061L304.617 154.421" stroke="black" stroke-width="0.983269" stroke-linecap="round"></path>
  <path d="M97.1474 166.613C97.2458 163.86 108.258 164.745 108.947 164.843V166.613L112.29 168.973C107.21 169.104 97.0688 168.816 97.1474 166.613Z" fill="black"></path>
  <path d="M124.482 166.318V156.289" stroke="black" stroke-width="0.983269" stroke-linecap="round"></path>
  <path d="M115.928 168.875V157.862" stroke="black" stroke-width="0.983269" stroke-linecap="round"></path>
  <path d="M108.848 166.318V155.306" stroke="black" stroke-width="0.983269" stroke-linecap="round"></path>
  <path d="M115.928 168.973L124.482 166.417" stroke="black" stroke-width="0.983269" stroke-linecap="round"></path>
  <path d="M124.482 156.191L115.928 157.764" stroke="black" stroke-width="0.983269" stroke-linecap="round"></path>
  <path d="M108.848 155.306L116.616 153.339" stroke="black" stroke-width="0.983269" stroke-linecap="round"></path>
  <path d="M124.482 156.191L116.616 153.339" stroke="black" stroke-width="0.983269" stroke-linecap="round"></path>
  <path d="M108.848 155.404L116.026 157.764" stroke="black" stroke-width="0.983269" stroke-linecap="round"></path>
  <path d="M121.421 146.133L117.269 152.637C117.135 152.847 117.228 153.127 117.461 153.216L124.171 155.777C124.351 155.845 124.553 155.774 124.651 155.608L128.571 148.927C128.695 148.715 128.597 148.443 128.367 148.359L121.889 145.975C121.715 145.912 121.521 145.977 121.421 146.133Z" stroke="black" stroke-width="0.983269"></path>
  <path d="M110.036 144.883L111.609 148.423" stroke="black" stroke-width="0.983269" stroke-linecap="round"></path>
  <path d="M104.53 146.849L109.643 151.176" stroke="black" stroke-width="0.983269" stroke-linecap="round"></path>
  <path d="M104.334 152.552L107.48 154.322" stroke="black" stroke-width="0.983269" stroke-linecap="round"></path>
  <circle cx="192" cy="117" r="9" fill="#141414"></circle>
  <path fill-rule="evenodd" clip-rule="evenodd" d="M194.136 118.552L194.096 118.435C194.708 117.017 195.082 115.572 195.082 114.571C195.082 114.129 194.927 113.778 194.626 113.53C194.327 113.283 193.891 113.135 193.513 113.135V113H197.427V113.109C196.868 113.109 196.483 113.633 196.016 114.62L194.136 118.552ZM192.17 122.285L188.171 113.811C187.95 113.303 187.637 113.134 187 113.134L187 113H191.463V113.136C190.8 113.136 190.344 113.566 190.657 114.203L193.386 120.093L192.313 122.285L192.17 122.285Z" fill="white"></path>
</svg>
