<?xml version="1.0" encoding="UTF-8"?>
<svg xmlns="http://www.w3.org/2000/svg" width="158" height="108" fill="none" viewBox="0 0 158 108">
  <g class="oc-mailbox">
    <path fill="#000" d="M131.885 19.411c12.61 7.836 11.838 40.81 9.875 56.319h4.179c6.077-32.649-1.267-49.735-5.698-54.197l-8.356-2.122Z" class="Vector 1147"></path>
    <path stroke="#000" stroke-linecap="round" stroke-width="1.903" d="M155.859 73.446c2.157-17.06 1.522-47.756-15.982-52.322" class="Vector 1135"></path>
    <path stroke="#000" stroke-linecap="round" stroke-width="1.903" d="M156.642 76.278 94.616 72.33a.38.38 0 0 0-.405.38v6.275a.38.38 0 0 0 .359.38l62.026 3.571a.38.38 0 0 0 .402-.38v-5.899a.38.38 0 0 0-.356-.38Z" class="Vector 1137"></path>
    <path stroke="#000" stroke-linecap="round" stroke-width="1.903" d="M112.479 80.676v26.257" class="Vector 1138"></path>
    <path stroke="#000" stroke-linecap="round" stroke-width="1.903" d="M99.92 80.106V98.18" class="Vector 1151"></path>
    <path fill="#000" stroke="#000" stroke-linecap="round" stroke-width="1.903" d="M4.982 89.972c8.36 5.896 63.234-9.385 88.85-17.477L41.51 74.588C23.985 76.756-3.379 84.077 4.982 89.972Z" class="Vector 1139"></path>
    <path stroke="#000" stroke-linecap="round" stroke-width="1.903" d="M6.69 98.751 3.647 88.667" class="Vector 1141"></path>
    <path stroke="#000" stroke-linecap="round" stroke-width="1.903" d="M94.213 78.774C79.52 86.468 41.315 102.093 6.691 98.897" class="Vector 1140"></path>
    <path fill="#000" d="M87.363 6.473c12.634 9.133 11.86 47.566 9.894 65.642h4.186c6.088-38.053-1.269-57.968-5.708-63.168l-8.372-2.474Z" class="Vector 1146"></path>
    <path stroke="#000" stroke-linecap="round" stroke-width="1.903" d="M139.877 21.123 68.908 1.337" class="Vector 1136"></path>
    <path stroke="#000" stroke-linecap="round" stroke-width="1.903" d="M86.794 70.973C89.71 45.731 88.887-3.535 62.25 1.336c-5.581.951-17.505 7.192-20.55 24.544" class="Vector 1142"></path>
    <path stroke="#000" stroke-linecap="round" stroke-width="1.903" d="m41.766 74.062 21.815-23.17" class="Vector 1143"></path>
    <path fill="#000" d="M41.94 24.63C45.324 8.226 56.805 2.263 62.25 1.335c14.096-2.578 20.964 10.007 23.873 26.168a1.129 1.129 0 0 1-1.193 1.323l-41.963-2.86a1.12 1.12 0 0 1-1.027-1.338Z" class="Vector 1148"></path>
    <path stroke="#000" stroke-linecap="round" stroke-width="1.903" d="M33.393 26.305 63.58 50.892l10.097 8.245a1.142 1.142 0 0 0 1.474-.025l12.277-10.736" class="Vector 1152"></path>
    <path stroke="#000" stroke-linecap="round" stroke-width="1.903" d="m34.037 25.951 50.56 3.31c.414.027.783.271.94.657 3.477 8.537 2.539 29.718 1.538 40.334a1.134 1.134 0 0 1-1.053 1.023l-43.73 3.068a1.121 1.121 0 0 1-1.108-.658c-3.73-8.362-10.06-28.098-8.347-46.718a1.126 1.126 0 0 1 1.2-1.015Z" class="Vector 1153"></path>
    <path stroke="#000" stroke-linecap="round" stroke-width="1.903" d="M34.85 54.04c-7.23 0-7.767-.524-14.995-1.74-.563-.094-1.107.24-1.312.773C16.078 59.48 7.394 70.135 2.315 61.08c-1.46-2.6-2.93-10.084 2.854-19.217 5.655-8.93 11.286-4.883 13.55-1.557.1.148.159.318.174.496.242 2.819-.08 7.522-2.157 11.336-1.183 2.172-2.936 4.055-5.479 5.137-7.154 3.044-7.23-5.137-4.947-9.513 1.142-2.474 3.235-4.757 6.28-2.474 2.473 2.284.38 4.757-.952 6.47" class="Vector 1150"></path>
    <path stroke="#000" stroke-linecap="round" stroke-width="1.903" d="m7.64 64.55 30.824 2.998" class="Vector 1156"></path>
    <path stroke="#000" stroke-linecap="round" stroke-width="1.903" d="m11.639 51.756 5.098.38" class="Vector 1155"></path>
    <path stroke="#000" stroke-linecap="round" stroke-width="1.903" d="M32.758 40.53c-7.04 0-6.849 0-18.455-3.805" class="Vector 1154"></path>
  </g>
</svg>
