<svg width="217" height="217" fill="none" xmlns="http://www.w3.org/2000/svg">
    <path fill-rule="evenodd" clip-rule="evenodd"
          d="M216 109c0 8-16 15-19 23-2 9 9 23 5 30-5 8-22 5-28 12-7 6-4 23-12 28-7 4-21-7-30-5-8 3-15 19-23 19-9 0-16-16-24-19-9-2-23 9-30 5-8-5-5-22-12-28-6-7-23-4-28-12-4-7 7-21 5-30-3-8-19-15-19-23 0-9 16-16 19-24 2-9-9-23-5-30 5-8 22-5 28-12 7-6 4-23 12-28 7-4 21 7 30 5 8-3 15-19 24-19 8 0 15 16 23 19 9 2 23-9 30-5 8 5 5 22 12 28 6 7 23 4 28 12 4 7-7 21-5 30 3 8 19 15 19 24Z"
          fill="#fff" stroke="#000" stroke-width="1.5" stroke-linecap="round" stroke-dasharray="2 3"/>
</svg>