<?xml version="1.0" encoding="UTF-8"?>
<!-- Generator: Adobe Illustrator 24.1.3, SVG Export Plug-In . SVG Version: 6.00 Build 0)  -->
<svg xmlns="http://www.w3.org/2000/svg" xmlns:xlink="http://www.w3.org/1999/xlink" version="1.1" id="Layer_1" x="0px" y="0px" viewBox="0 0 178.13 46.8" style="enable-background:new 0 0 178.13 46.8;" xml:space="preserve">
<g id="Layer_2">
	<g id="Layer_3">
	</g>
</g>
<g>
	<path d="M73.07,0h11.55l9.46,32.49L103.6,0h11.61L99.92,45.64H88.31L73.07,0z"></path>
	<path d="M143.55,45.64h-9.23v-3.51c-1.13,1.61-2.93,4.36-8.88,4.36c-11.19,0-12.61-8.77-12.61-13.23V14.45h9.88v16.19   c0,3.63,0.77,6.85,5.24,6.85c4.94,0,5.72-3.51,5.72-6.91V14.45h9.88V45.64z"></path>
	<path d="M49.05,7.47c0-3.08,2.58-5.66,5.66-5.66s5.66,2.58,5.66,5.66s-2.58,5.66-5.66,5.66S49.05,10.55,49.05,7.47z M49.63,15.62   h10.07v30.02H49.63V15.62z"></path>
	<path d="M61.87,7.47c0-3.08,2.58-5.66,5.66-5.66c3.08,0,5.66,2.58,5.66,5.66s-2.58,5.66-5.66,5.66   C64.44,13.13,61.87,10.55,61.87,7.47z M62.39,15.62h10.07v30.02H62.39V15.62z"></path>
	<path d="M26.13,46.64L6.04,4.07c-1.11-2.55-2.68-3.4-5.88-3.4V0h22.42v0.68c-3.33,0-5.62,2.16-4.05,5.36l13.71,29.59l-5.39,11.01   H26.13z M36.01,27.89l-0.2-0.59c3.07-7.12,4.95-14.38,4.95-19.41c0-2.22-0.78-3.98-2.29-5.23c-1.5-1.24-3.69-1.98-5.59-1.98V0   h19.66v0.55c-2.81,0-4.74,2.63-7.09,7.59L36.01,27.89z"></path>
	<path d="M162.89,37.93c2.54,0,5-0.99,6.24-2.36l7.19,4.13c-3.04,4.22-7.37,6.54-13.27,6.54c-10.61,0-17.19-7.14-17.19-16.38   s6.7-16.38,16.5-16.38c9.06,0,15.76,7.01,15.76,16.38c0,1.3-0.12,1.63-0.37,2.81h-22.52C156.42,35.9,158.61,37.93,162.89,37.93z    M168.88,26.64c-0.99-3.6-3.78-4.9-6.58-4.9c-3.54,0-5.89,1.74-6.76,4.9H168.88z"></path>
</g>
</svg>
